<?xml version="1.0" encoding="utf-8"?>
<!-- Generator: Adobe Illustrator 16.0.3, SVG Export Plug-In . SVG Version: 6.00 Build 0)  -->
<!DOCTYPE svg PUBLIC "-//W3C//DTD SVG 1.1//EN" "http://www.w3.org/Graphics/SVG/1.1/DTD/svg11.dtd">
<svg version="1.1" id="Layer_1" xmlns="http://www.w3.org/2000/svg" xmlns:xlink="http://www.w3.org/1999/xlink" x="0px" y="0px"
	 width="308px" height="68px" viewBox="0 0 308 68" enable-background="new 0 0 308 68" xml:space="preserve">
<path fill="#DD1F26" d="M129.154,60.691c0,3.555-2.909,6.465-6.464,6.465H72.596c-3.555,0-6.463-2.91-6.463-6.465V7.635
	c0-3.555,2.909-6.464,6.463-6.464h50.094c3.555,0,6.464,2.909,6.464,6.464V60.691z"/>
<path fill="#DD1F26" d="M63.708,60.691c0,3.555-2.909,6.465-6.463,6.465H7.151c-3.555,0-6.464-2.91-6.464-6.465V7.635
	c0-3.555,2.909-6.464,6.464-6.464h50.094c3.555,0,6.463,2.909,6.463,6.464V60.691z"/>
<path fill="#FFFFFF" d="M28.269,11.335L8.465,56.337h9.088l4.519-10.529h20.062l4.456,10.529h9.342L36.127,11.335H28.269z
	 M38.844,37.939H25.36l6.714-15.552L38.844,37.939z"/>
<path fill="#FFFFFF" d="M112.413,18.023c-2.113-1.991-4.664-3.568-7.582-4.69c-2.916-1.119-6.159-1.687-9.639-1.687H78.273v44.69
	h16.919c3.482,0,6.726-0.579,9.642-1.719c2.919-1.143,5.469-2.731,7.579-4.721c2.116-1.994,3.774-4.382,4.927-7.097
	c1.153-2.712,1.737-5.676,1.737-8.809v-0.125c0-3.132-0.585-6.086-1.738-8.778C116.186,22.396,114.528,20.019,112.413,18.023z
	 M87.007,19.64h8.122c2.222,0,4.266,0.366,6.076,1.088c1.807,0.721,3.362,1.723,4.621,2.979c1.259,1.256,2.253,2.785,2.956,4.542
	c0.703,1.764,1.06,3.696,1.06,5.744v0.125c0,2.047-0.356,3.968-1.059,5.711c-0.702,1.738-1.697,3.258-2.956,4.514
	c-1.258,1.254-2.811,2.244-4.616,2.943c-1.811,0.703-3.857,1.059-6.082,1.059h-8.122V19.64z"/>
<path fill="#005FA0" d="M194.164,60.365c0,3.555-2.909,6.463-6.464,6.463h-50.094c-3.555,0-6.464-2.908-6.464-6.463V7.308
	c0-3.555,2.909-6.464,6.464-6.464H187.7c3.555,0,6.464,2.909,6.464,6.464V60.365z"/>
<polygon fill="#FFFFFF" points="173.6,11.646 173.6,40.772 150.915,11.646 142.972,11.646 142.972,56.337 151.707,56.337 
	151.707,26.338 175.081,56.337 182.333,56.337 182.333,11.646 "/>
<path d="M218.942,57.259c-3.314,0-6.133-0.493-8.457-1.474c-2.324-0.982-4.455-2.266-6.391-3.847l5.229-7.527
	c1.635,1.335,3.206,2.313,4.713,2.937c1.506,0.625,3.229,0.938,5.165,0.938c2.798,0,4.938-0.953,6.423-2.858
	c1.486-1.905,2.399-4.396,2.744-7.472c-1.119,0.947-2.432,1.701-3.938,2.26c-1.507,0.561-3.25,0.84-5.229,0.84
	c-2.454,0-4.671-0.334-6.649-1.002c-1.98-0.666-3.68-1.623-5.101-2.873c-1.421-1.247-2.509-2.776-3.261-4.583
	c-0.754-1.808-1.129-3.852-1.129-6.133v-0.129c0-2.281,0.42-4.39,1.258-6.327c0.84-1.937,2.012-3.604,3.52-5.003
	c1.506-1.398,3.324-2.496,5.455-3.292c2.131-0.796,4.465-1.195,7.005-1.195c1.506,0,2.872,0.097,4.099,0.291
	s2.357,0.484,3.391,0.871c1.032,0.388,2,0.894,2.904,1.518c0.904,0.625,1.786,1.367,2.647,2.227c0.817,0.818,1.55,1.744,2.195,2.776
	c0.646,1.033,1.204,2.239,1.679,3.616c0.473,1.378,0.839,2.938,1.098,4.681c0.258,1.743,0.387,3.734,0.387,5.972v0.129
	c0,3.658-0.431,7.005-1.291,10.039c-0.861,3.034-2.121,5.628-3.777,7.779c-1.657,2.152-3.712,3.831-6.165,5.036
	C225.011,56.655,222.171,57.259,218.942,57.259z M220.782,32.79c2.464,0,4.375-0.631,5.737-1.895
	c1.362-1.263,2.043-2.859,2.043-4.788v-0.128c0-2.013-0.703-3.663-2.108-4.948c-1.403-1.285-3.359-1.927-5.865-1.927
	c-2.465,0-4.365,0.632-5.705,1.896c-1.34,1.264-2.01,2.902-2.01,4.916v0.129c0,2.014,0.702,3.641,2.107,4.883
	C216.385,32.17,218.319,32.79,220.782,32.79z"/>
<path d="M247.212,21.041l-7.877,1.937l-2.064-8.135l12.976-3.874h6.778v45.516h-9.813V21.041z"/>
<path d="M263.036,46.154h10.395v10.33h-10.395V46.154z"/>
<path d="M296.017,19.716h-21.24V11.13h32.537v7.489l-20.271,37.703H275.81L296.017,19.716z"/>
</svg>
