<?xml version="1.0" encoding="UTF-8"?>
<svg xmlns="http://www.w3.org/2000/svg" xmlns:xlink="http://www.w3.org/1999/xlink" width="1000px" height="137px" viewBox="0 0 998 137" version="1.1">
<g id="surface1">
<path style=" stroke:none;fill-rule:nonzero;fill:rgb(100%,10.196078%,41.568627%);fill-opacity:1;" d="M 0 66.738281 C 0.0429688 103.578125 29.894531 133.433594 66.730469 133.476562 L 75.554688 133.476562 L 75.554688 107.210938 L 66.730469 107.210938 C 44.378906 107.210938 26.261719 89.089844 26.261719 66.738281 C 26.261719 44.386719 44.378906 26.265625 66.730469 26.265625 L 75.554688 26.265625 L 75.554688 0 L 66.730469 0 C 29.894531 0.0429688 0.0429688 29.898438 0 66.738281 "/>
<path style=" stroke:none;fill-rule:nonzero;fill:rgb(100%,10.196078%,41.568627%);fill-opacity:1;" d="M 104.59375 0 L 130.484375 0 L 130.484375 53.820312 L 104.59375 53.820312 Z M 104.59375 0 "/>
<path style=" stroke:none;fill-rule:nonzero;fill:rgb(100%,10.196078%,41.568627%);fill-opacity:1;" d="M 104.59375 80.066406 L 130.484375 80.066406 L 130.484375 133.457031 L 104.59375 133.457031 Z M 104.59375 80.066406 "/>
<path style=" stroke:none;fill-rule:nonzero;fill:rgb(100%,10.196078%,41.568627%);fill-opacity:1;" d="M 185.179688 0.078125 L 159.972656 0.078125 L 160.050781 125.667969 L 160.050781 133.808594 L 185.179688 133.808594 L 245.449219 53.820312 L 214.882812 53.820312 L 185.179688 95.234375 Z M 185.179688 0.078125 "/>
<path style=" stroke:none;fill-rule:nonzero;fill:rgb(5.098039%,22.352941%,49.803922%);fill-opacity:1;" d="M 349.59375 91.144531 L 349.945312 91.144531 L 349.945312 4.070312 L 375.1875 4.070312 L 375.1875 136.140625 L 356.972656 136.140625 L 288.8125 45.640625 L 288.460938 45.640625 L 288.460938 133.554688 L 263.21875 133.554688 L 263.21875 0.644531 L 281.417969 0.644531 Z M 349.59375 91.144531 "/>
<path style=" stroke:none;fill-rule:nonzero;fill:rgb(5.098039%,22.352941%,49.803922%);fill-opacity:1;" d="M 453.640625 137 C 414.152344 137 389.59375 106.78125 389.59375 68.65625 C 389.59375 30.179688 415.03125 0.644531 453.640625 0.644531 C 492.25 0.644531 517.6875 30.179688 517.6875 68.65625 C 517.6875 106.78125 493.148438 137 453.640625 137 M 453.640625 25.539062 C 429.785156 25.539062 415.695312 46.660156 415.695312 67.621094 C 415.695312 87.542969 425.65625 112.105469 453.640625 112.105469 C 481.625 112.105469 491.601562 87.542969 491.601562 67.621094 C 491.601562 46.660156 477.511719 25.539062 453.640625 25.539062 "/>
<path style=" stroke:none;fill-rule:nonzero;fill:rgb(5.098039%,22.352941%,49.803922%);fill-opacity:1;" d="M 544.671875 26.050781 L 518.570312 26.050781 L 518.570312 4.070312 L 596.019531 4.070312 L 596.019531 26.050781 L 569.917969 26.050781 L 569.917969 133.574219 L 544.671875 133.574219 Z M 544.671875 26.050781 "/>
<path style=" stroke:none;fill-rule:nonzero;fill:rgb(5.098039%,22.352941%,49.803922%);fill-opacity:1;" d="M 607.507812 4.070312 L 632.75 4.070312 L 632.75 133.554688 L 607.507812 133.554688 Z M 607.507812 4.070312 "/>
<path style=" stroke:none;fill-rule:nonzero;fill:rgb(5.098039%,22.352941%,49.803922%);fill-opacity:1;" d="M 739.890625 38.417969 C 732.886719 29.859375 722.453125 24.84375 711.398438 24.71875 C 687.171875 24.71875 673.277344 47.050781 673.277344 69.378906 C 673.277344 91.183594 687.699219 112.984375 711.222656 112.984375 C 722.277344 112.640625 732.675781 107.671875 739.890625 99.285156 L 739.890625 129.347656 C 730.457031 133.808594 721.007812 137.078125 710.535156 137.078125 C 674.121094 137.078125 647.171875 105.648438 647.171875 69.929688 C 647.171875 33.171875 673.101562 0.722656 711.046875 0.722656 C 721.140625 0.777344 731.0625 3.378906 739.890625 8.277344 Z M 739.890625 38.417969 "/>
<path style=" stroke:none;fill-rule:nonzero;fill:rgb(5.098039%,22.352941%,49.803922%);fill-opacity:1;" d="M 761.003906 4.070312 L 786.246094 4.070312 L 786.246094 133.554688 L 761.003906 133.554688 Z M 761.003906 4.070312 "/>
<path style=" stroke:none;fill-rule:nonzero;fill:rgb(5.098039%,22.352941%,49.803922%);fill-opacity:1;" d="M 833.289062 106.253906 L 822.644531 133.652344 L 796.03125 133.652344 L 846.5 0.742188 L 866.066406 0.742188 L 915.164062 133.652344 L 888.316406 133.652344 L 878.355469 106.253906 Z M 855.050781 38.59375 L 854.71875 38.59375 L 840.453125 85.566406 L 871.195312 85.566406 Z M 855.050781 38.59375 "/>
<path style=" stroke:none;fill-rule:nonzero;fill:rgb(5.098039%,22.352941%,49.803922%);fill-opacity:1;" d="M 981.660156 32.585938 C 976.847656 26.050781 970.664062 21.941406 962.25 21.941406 C 954.1875 21.941406 946.457031 28.125 946.457031 36.539062 C 946.457031 58.34375 997.804688 49.242188 997.804688 92.691406 C 997.804688 118.621094 981.660156 137 955.222656 137 C 937.355469 137 924.304688 126.6875 915.382812 111.753906 L 931.683594 95.78125 C 935.125 105.746094 944.226562 114.667969 955.046875 114.667969 C 965.339844 114.667969 971.699219 105.921875 971.699219 95.957031 C 971.699219 82.550781 959.332031 78.773438 949.214844 74.820312 C 932.542969 67.953125 920.351562 59.535156 920.351562 39.457031 C 920.351562 17.925781 936.320312 0.644531 958.140625 0.644531 C 969.644531 0.644531 985.535156 6.300781 993.519531 15.070312 Z M 981.660156 32.585938 "/>
</g>
</svg>
