<!DOCTYPE svg PUBLIC "-//W3C//DTD SVG 20010904//EN" "http://www.w3.org/TR/2001/REC-SVG-20010904/DTD/svg10.dtd">
<svg version="1.0" xmlns="http://www.w3.org/2000/svg" width="512px" height="86px" viewBox="0 0 5120 860" preserveAspectRatio="xMidYMid meet">
<g id="layer101" fill="#454e5c" stroke="none">
<path d="M4466 621 c-3 -5 24 -90 61 -190 l67 -181 47 0 46 0 67 179 c38 99 65 184 61 190 -7 12 -64 15 -82 3 -6 -4 -15 -20 -18 -35 -7 -26 -10 -27 -71 -27 -63 0 -64 0 -78 35 -14 32 -19 35 -55 35 -22 0 -42 -4 -45 -9z m203 -153 c0 -7 -6 -29 -14 -48 l-13 -35 -10 25 c-26 67 -26 70 7 70 19 0 31 -5 30 -12z"/>
<path d="M4936 618 c-44 -9 -106 -52 -106 -72 0 -13 41 -56 54 -56 4 0 19 9 33 20 31 24 88 27 97 5 5 -15 -45 -55 -69 -55 -6 0 -27 -11 -47 -25 -72 -49 -71 -142 2 -180 38 -20 113 -19 156 1 55 26 59 38 25 76 -27 31 -30 32 -48 17 -24 -22 -55 -30 -72 -20 -24 15 -4 38 48 56 71 23 111 63 111 110 0 92 -79 145 -184 123z"/>
<path d="M1035 608 c-3 -8 -4 -90 -3 -183 l3 -170 42 -3 41 -3 52 86 c28 47 55 83 60 80 4 -3 29 -41 55 -86 l48 -80 41 3 41 3 0 180 0 180 -50 0 -50 0 -3 -64 -3 -64 -43 48 -42 48 -39 -48 -40 -48 -5 64 -5 64 -48 3 c-32 2 -49 -1 -52 -10z"/>
<path d="M1520 435 l0 -186 133 3 132 3 0 40 0 40 -80 5 c-74 5 -80 7 -83 28 -3 20 1 22 42 22 l46 0 0 45 0 45 -45 0 c-41 0 -45 2 -45 25 0 25 1 25 85 25 l85 0 0 45 0 45 -135 0 -135 0 0 -185z"/>
<path d="M1945 608 c-32 -18 -76 -61 -92 -91 -8 -16 -14 -53 -14 -83 0 -95 61 -168 158 -189 40 -8 105 9 138 38 l26 22 -34 34 c-34 32 -36 33 -71 20 -98 -35 -158 92 -68 144 43 25 80 17 84 -21 3 -25 7 -27 56 -30 l52 -3 0 56 c0 55 0 56 -47 85 -39 25 -57 30 -107 30 -34 0 -70 -6 -81 -12z"/>
<path d="M2225 610 c-7 -11 108 -323 127 -347 6 -7 32 -13 58 -13 26 0 52 6 57 13 23 28 135 339 125 349 -5 5 -29 8 -53 6 -39 -3 -46 -7 -58 -35 -14 -32 -17 -33 -71 -33 -54 0 -57 1 -71 33 -13 29 -19 32 -61 35 -26 2 -49 -2 -53 -8z m211 -156 c-3 -9 -9 -27 -12 -40 -8 -33 -18 -30 -32 9 -17 46 -16 47 19 47 24 0 30 -3 25 -16z"/>
<path d="M2665 608 c-3 -8 -4 -90 -3 -183 l3 -170 48 -3 47 -3 63 97 62 97 5 -94 5 -94 43 -3 42 -3 -2 183 -3 183 -45 0 -45 0 -60 -97 -60 -97 -5 97 -5 97 -43 3 c-28 2 -44 -1 -47 -10z"/>
<path d="M3135 595 c-65 -43 -90 -87 -90 -160 0 -51 5 -69 28 -102 69 -100 217 -116 293 -31 80 87 69 215 -22 285 -30 22 -49 28 -103 31 -58 3 -71 0 -106 -23z m128 -64 c62 -24 87 -101 51 -156 -19 -29 -72 -48 -107 -40 -90 23 -98 160 -12 196 27 11 39 11 68 0z"/>
<path d="M3540 481 l0 -140 -47 -3 c-47 -3 -48 -4 -51 -39 -5 -55 8 -60 154 -57 l129 3 3 48 3 47 -45 0 -46 0 0 140 0 140 -50 0 -50 0 0 -139z"/>
<path d="M3790 435 l0 -185 25 -6 c14 -3 36 -3 50 0 l25 6 0 185 0 185 -50 0 -50 0 0 -185z"/>
<path d="M4055 605 c-46 -25 -66 -46 -86 -90 -39 -85 -10 -184 68 -239 35 -24 52 -29 100 -29 35 0 71 7 91 17 l33 17 -18 30 c-26 44 -38 52 -62 40 -35 -19 -71 -13 -103 19 -27 27 -30 36 -25 72 9 70 59 97 137 75 21 -6 28 -2 47 27 l22 34 -20 18 c-29 26 -143 31 -184 9z"/>
<path d="M4310 435 l0 -185 25 -6 c14 -3 36 -3 50 0 l25 6 0 185 0 185 -50 0 -50 0 0 -185z"/>
</g>
<g id="layer102" fill="#1ea88b" stroke="none">
<path d="M71 842 c-69 -37 -71 -48 -71 -410 0 -360 2 -373 65 -412 31 -19 49 -20 361 -20 469 0 434 -35 434 430 0 465 35 430 -430 430 -296 0 -328 -2 -359 -18z"/>
</g>
<g id="layer103" fill="#f8fcfb" stroke="none">
<path d="M208 615 c-64 -36 -64 -90 3 -229 28 -58 62 -115 76 -126 32 -25 79 -26 118 -2 29 18 31 18 63 -1 36 -21 91 -19 120 5 8 7 39 63 69 123 69 143 70 195 3 230 -39 20 -69 19 -108 -5 l-33 -20 -26 20 c-33 26 -83 26 -117 -1 -25 -20 -28 -20 -46 -4 -26 23 -89 29 -122 10z m78 -43 c31 -20 32 -45 6 -99 -14 -29 -29 -53 -32 -53 -10 0 -50 89 -50 110 0 36 46 62 76 42z m190 -16 c15 -24 14 -30 -31 -130 -55 -123 -73 -144 -113 -130 -43 15 -40 55 12 163 25 51 51 99 57 107 18 22 57 17 75 -10z m166 7 c10 -9 18 -24 18 -33 0 -9 -23 -65 -50 -123 -40 -86 -55 -108 -76 -113 -28 -7 -64 18 -64 46 0 25 97 227 112 233 24 10 41 7 60 -10z"/>
</g>


</svg>